<?xml version="1.0" standalone="no"?>
<!DOCTYPE svg PUBLIC "-//W3C//DTD SVG 20010904//EN"
 "http://www.w3.org/TR/2001/REC-SVG-20010904/DTD/svg10.dtd">
<svg version="1.0" xmlns="http://www.w3.org/2000/svg"
 width="700.000000pt" height="700.000000pt" viewBox="0 0 700.000000 700.000000"
 preserveAspectRatio="xMidYMid meet">
<metadata>
Created by potrace 1.14, written by Peter Selinger 2001-2017
</metadata>
<g transform="translate(0.000000,700.000000) scale(0.100000,-0.100000)"
fill="#000000" stroke="none">
<path d="M2565 6205 c-33 -8 -112 -32 -175 -55 -63 -23 -142 -51 -175 -62 -33
-12 -348 -126 -700 -255 -352 -129 -644 -235 -650 -237 -5 -2 -17 -6 -25 -9
-8 -4 -125 -47 -259 -97 -272 -101 -322 -125 -393 -189 -103 -92 -148 -189
-149 -321 -1 -111 2 -118 148 -525 58 -159 124 -344 148 -410 66 -183 213
-588 252 -695 19 -52 48 -131 63 -175 16 -44 45 -125 65 -180 47 -127 81 -222
189 -520 48 -132 91 -249 96 -260 5 -11 56 -151 114 -311 58 -160 111 -308
120 -330 8 -21 42 -115 76 -209 34 -93 65 -178 71 -187 5 -10 9 -23 9 -30 0
-6 19 -49 41 -95 95 -191 248 -283 443 -269 114 8 160 23 761 246 188 70 488
175 605 211 160 50 293 58 430 25 82 -19 590 -192 690 -234 14 -6 120 -45 235
-87 116 -42 219 -80 230 -85 120 -52 269 -81 379 -75 199 11 337 148 435 430
34 96 243 670 251 690 10 22 230 624 234 640 2 6 6 17 9 25 11 27 103 281 157
430 28 80 56 154 60 165 5 11 77 209 160 440 84 231 174 480 201 553 27 73 49
138 49 145 0 7 4 17 9 23 4 5 20 43 34 84 14 41 49 138 77 215 28 77 52 149
55 160 63 269 9 432 -183 558 -84 55 -145 81 -522 218 -168 61 -366 134 -440
161 -74 28 -157 58 -185 68 -115 40 -171 61 -185 67 -8 3 -19 7 -25 8 -5 2
-55 19 -110 40 -55 20 -131 48 -170 62 -38 13 -79 29 -90 33 -11 5 -51 20 -90
34 -38 13 -142 50 -230 81 -228 82 -280 95 -390 100 -188 7 -337 -100 -434
-310 -21 -44 -156 -405 -278 -740 -24 -66 -46 -127 -49 -135 -3 -8 -5 -17 -6
-20 -1 -22 -23 -40 -47 -40 -18 0 -31 7 -36 18 -4 9 -36 98 -71 197 -35 99
-73 203 -83 230 -10 28 -52 138 -91 245 -89 239 -110 286 -151 347 -117 174
-297 245 -504 198z m206 -271 c61 -31 109 -101 145 -211 8 -26 19 -57 24 -68
5 -11 35 -90 66 -175 31 -85 79 -216 106 -290 88 -238 199 -560 207 -604 8
-45 7 -107 -3 -169 -9 -56 -83 -272 -286 -832 -34 -93 -83 -231 -110 -305 -27
-74 -62 -171 -78 -215 -104 -284 -281 -779 -295 -825 -29 -99 -45 -200 -40
-267 10 -151 109 -262 343 -383 145 -74 223 -131 200 -145 -7 -4 -67 -27 -134
-50 -66 -24 -202 -72 -301 -108 -342 -122 -689 -235 -738 -239 -51 -4 -182 83
-212 143 -9 16 -65 163 -125 326 -61 164 -117 314 -125 333 -7 19 -38 103 -68
185 -97 265 -198 539 -213 578 -8 22 -77 211 -153 420 -77 210 -146 400 -154
422 -9 22 -37 98 -62 170 -26 71 -61 170 -80 220 -18 49 -111 304 -205 565
-190 522 -200 562 -162 636 37 71 85 104 227 157 39 14 376 137 750 272 374
135 745 270 825 300 482 177 507 185 576 180 23 -2 57 -11 75 -21z"/>
</g>
</svg>
