<?xml version="1.0" standalone="no"?>
<!DOCTYPE svg PUBLIC "-//W3C//DTD SVG 20010904//EN"
 "http://www.w3.org/TR/2001/REC-SVG-20010904/DTD/svg10.dtd">
<svg version="1.0" xmlns="http://www.w3.org/2000/svg"
 width="1000.000000pt" height="1000.000000pt" viewBox="0 0 1000.000000 1000.000000"
 preserveAspectRatio="xMidYMid meet">
<metadata>
Created by potrace 1.14, written by Peter Selinger 2001-2017
</metadata>
<g transform="translate(0.000000,1000.000000) scale(0.100000,-0.100000)"
fill="#000000" stroke="none">
<path d="M844 9869 c-313 -52 -592 -284 -697 -579 -61 -170 -57 161 -54 -4315
1 -2255 5 -4109 9 -4120 3 -11 11 -40 18 -65 51 -191 180 -379 344 -499 76
-56 205 -116 309 -144 l82 -22 4120 0 c2266 0 4143 3 4170 7 62 9 112 23 195
56 258 102 458 332 532 610 l23 87 0 4115 0 4115 -22 82 c-86 322 -312 552
-644 655 l-74 23 -4130 1 c-2271 1 -4153 -2 -4181 -7z"/>
</g>
</svg>
